<?xml version="1.0" standalone="no"?>
<!DOCTYPE svg PUBLIC "-//W3C//DTD SVG 20010904//EN"
 "http://www.w3.org/TR/2001/REC-SVG-20010904/DTD/svg10.dtd">
<svg version="1.0" xmlns="http://www.w3.org/2000/svg"
 width="450.000000pt" height="450.000000pt" viewBox="0 0 450.000000 450.000000"
 preserveAspectRatio="xMidYMid meet">
<metadata>
Created by potrace 1.14, written by Peter Selinger 2001-2017
</metadata>
<g transform="translate(0.000000,450.000000) scale(0.100000,-0.100000)"
fill="#000000" stroke="none">
<path d="M570 4485 c7 -8 16 -13 19 -10 4 2 8 -1 8 -8 0 -7 12 -32 28 -55 16
-24 37 -67 46 -95 12 -35 18 -44 18 -27 0 14 -6 36 -14 50 -16 28 -18 40 -7
40 4 0 12 -10 17 -22 7 -15 17 -22 30 -20 16 3 17 2 6 -12 -9 -10 -9 -16 -3
-16 6 0 9 -7 6 -15 -4 -8 -11 -12 -16 -9 -6 4 0 -7 13 -25 12 -17 27 -31 31
-31 5 0 0 10 -12 22 -18 19 -18 23 -5 31 9 4 13 11 11 15 -3 4 4 8 14 8 10 0
17 -4 14 -8 -2 -4 4 -11 13 -17 16 -9 16 -10 2 -11 -10 0 -19 -12 -22 -30 -6
-28 -8 -29 -36 -19 -16 6 -32 18 -34 27 -4 16 -5 16 -6 0 -1 -10 21 -28 57
-49 31 -17 87 -62 124 -99 37 -37 63 -60 58 -50 -5 9 -28 36 -52 61 -24 24
-42 48 -40 52 1 5 -1 6 -6 3 -5 -3 -18 1 -28 9 -19 14 -19 14 1 14 20 0 51
-18 53 -31 1 -5 4 -8 7 -8 3 0 10 0 17 0 9 0 9 3 0 12 -15 15 -16 28 -2 28 6
0 9 -6 8 -12 -2 -7 7 -14 20 -16 25 -4 23 -9 26 123 3 125 16 156 81 196 30
19 28 19 -214 19 -214 0 -242 -2 -231 -15z m75 -56 c11 -17 -1 -21 -15 -4 -8
9 -8 15 -2 15 6 0 14 -5 17 -11z"/>
<path d="M1210 4481 c30 -10 79 -29 108 -44 68 -33 67 -20 -3 27 -46 30 -63
36 -107 35 l-53 0 55 -18z"/>
<path d="M1875 4488 c-4 -10 -4 -26 0 -35 8 -17 8 -17 12 0 3 9 3 25 0 35 -4
16 -4 16 -12 0z"/>
<path d="M2234 4484 c3 -9 7 -34 7 -57 1 -23 3 -34 6 -24 3 10 10 16 16 14 13
-4 17 -40 10 -96 -4 -31 -8 -39 -15 -30 -11 16 -3 -76 9 -94 4 -6 7 -20 8 -31
1 -12 9 -78 19 -147 10 -69 16 -139 14 -155 -4 -28 -6 -27 -103 72 -99 100
-185 174 -185 157 0 -4 40 -48 90 -96 73 -71 130 -146 130 -170 0 -3 -13 -7
-29 -9 -17 -2 -30 -2 -29 1 2 19 -4 24 -12 11 -11 -18 -96 -15 -127 6 -30 19
-33 18 -33 -9 0 -13 11 -34 25 -47 14 -13 25 -27 25 -32 0 -17 -25 -7 -48 20
l-23 27 6 -42 c5 -28 3 -43 -4 -43 -6 0 -11 4 -11 9 0 6 -8 10 -17 11 -10 0
-34 1 -53 3 -19 1 -41 -4 -48 -10 -18 -18 -67 -16 -82 2 -10 12 -9 15 7 15 10
0 24 -5 31 -12 22 -22 12 4 -13 34 -14 16 -25 25 -25 19 0 -8 -6 -8 -19 0 -10
7 -16 20 -14 30 5 18 -40 93 -50 83 -3 -3 -2 -17 4 -31 5 -13 9 -39 9 -56 l-1
-32 -16 30 c-20 39 -84 106 -94 99 -5 -2 10 -21 31 -41 22 -19 40 -40 39 -47
0 -7 -2 -6 -6 2 -2 6 -9 12 -13 12 -5 0 -68 60 -140 133 -125 125 -128 127
-51 39 45 -52 79 -98 76 -102 -3 -5 0 -12 6 -16 8 -5 9 -3 4 6 -5 9 -4 11 4 6
6 -4 9 -11 6 -16 -3 -5 39 -64 94 -132 54 -68 98 -124 96 -126 -1 -1 -22 2
-47 7 -24 6 -76 12 -114 15 -38 2 -99 8 -136 12 -49 5 -68 3 -68 -5 0 -6 3
-11 8 -12 162 -11 339 -45 378 -73 18 -14 18 -15 0 -34 -11 -13 -15 -28 -12
-40 9 -27 -26 -56 -61 -50 -15 3 -37 9 -48 13 -16 7 -18 6 -7 -6 19 -20 15
-25 -25 -27 -45 -3 -47 -5 -34 -30 8 -16 6 -21 -15 -31 -20 -9 -24 -9 -18 1 4
7 -2 5 -13 -4 -11 -10 -25 -18 -32 -18 -7 0 -9 -6 -6 -12 4 -7 -8 3 -25 22
-17 19 -40 52 -51 73 -11 20 -22 37 -25 37 -10 0 66 -135 97 -173 18 -22 45
-41 69 -48 33 -10 37 -14 24 -23 -8 -7 -15 -16 -14 -21 2 -6 2 -16 1 -24 -1
-11 -4 -11 -17 0 -13 10 -17 10 -24 0 -4 -8 -13 -10 -19 -7 -6 4 -11 2 -11 -3
0 -6 -7 -11 -15 -11 -8 0 -14 -3 -14 -7 4 -26 -2 -53 -11 -48 -6 4 -7 12 -3
18 4 7 1 7 -9 -1 -9 -8 -15 -19 -12 -25 3 -8 -12 -13 -46 -14 -46 -1 -54 2
-92 38 -23 21 -46 39 -52 39 -6 0 -4 -4 4 -10 33 -20 -4 -23 -42 -3 -32 18
-37 19 -26 5 25 -32 66 -72 75 -72 4 0 22 -11 38 -25 48 -39 7 -30 -66 14 -35
21 -64 44 -64 49 0 6 -6 17 -13 24 -6 6 -12 22 -12 35 0 13 -3 23 -8 23 -4 0
-15 12 -25 28 l-18 27 3 -30 4 -30 -52 25 c-31 15 -47 28 -40 32 6 4 -2 8 -17
8 -18 0 -26 -4 -21 -11 4 -8 -1 -9 -17 -4 -13 5 -37 11 -54 15 -16 4 -39 11
-50 15 -47 16 34 -37 125 -82 178 -90 429 -237 444 -261 2 -4 -37 -7 -87 -8
-105 0 -182 -9 -222 -24 -49 -19 -19 -22 59 -6 86 18 194 21 248 6 l37 -11
-15 -34 c-8 -19 -14 -43 -14 -53 0 -18 -38 -62 -54 -62 -5 0 -24 -13 -43 -30
-18 -16 -41 -30 -50 -30 -15 0 -15 -2 0 -18 16 -17 16 -19 -6 -31 -37 -19
-134 20 -152 62 -54 126 -80 176 -139 266 -67 104 -265 346 -274 336 -3 -3 2
-13 12 -24 16 -18 15 -21 -15 -72 -75 -128 -185 -402 -239 -596 -115 -419
-117 -907 -5 -1353 35 -141 147 -476 165 -494 7 -7 21 0 42 21 35 32 78 63 89
63 6 0 11 -158 11 -350 l0 -95 -39 -32 c-23 -20 -38 -41 -38 -55 0 -19 -5 -23
-30 -21 -39 3 -55 26 -48 68 6 40 -3 85 -18 85 -11 0 -80 -46 -116 -78 -20
-17 -34 -19 -120 -14 -54 2 -101 8 -106 11 -4 4 4 20 18 35 18 19 25 38 25 67
0 48 -11 49 -61 4 -22 -19 -49 -35 -62 -35 -31 0 -64 25 -71 55 -7 27 -27 32
-70 15 l-26 -10 0 -240 0 -240 2250 0 2250 0 0 200 c0 171 -2 200 -15 200 -8
0 -15 4 -15 9 0 5 7 16 15 25 12 12 15 45 15 165 0 83 -3 151 -7 151 -5 0 -30
-7 -57 -15 -78 -24 -99 -19 -48 11 23 14 42 28 42 33 0 4 -15 13 -34 19 -31
11 -36 19 -47 67 -11 51 -11 56 15 100 15 25 41 61 57 79 16 19 29 38 29 44 0
19 -29 21 -50 2 -17 -15 -26 -16 -50 -7 -25 9 -35 8 -60 -6 -17 -10 -34 -16
-39 -12 -5 3 -11 -5 -13 -17 -2 -16 -12 -24 -33 -28 -53 -11 -71 -28 -136
-127 -25 -40 -56 -43 -65 -8 -10 39 0 52 58 73 l53 20 -42 12 c-57 17 -72 37
-62 75 7 24 20 36 61 55 l53 24 -37 3 c-55 6 -58 30 -8 73 22 19 40 39 40 45
0 5 -5 4 -12 -3 -19 -19 -71 -14 -133 14 -39 17 -71 24 -98 22 l-41 -3 -1 -44
c-1 -32 -6 -48 -20 -55 -10 -6 -39 -27 -64 -46 -37 -28 -55 -35 -93 -35 -26 0
-52 5 -59 12 -31 31 4 156 67 239 30 38 31 43 14 47 -11 3 -24 -1 -31 -9 -15
-18 -43 -18 -59 1 -14 17 -70 21 -70 4 0 -6 -8 -8 -20 -4 -10 3 -32 -1 -48 -9
-25 -13 -30 -25 -46 -95 -9 -45 -20 -81 -23 -81 -3 0 -3 14 1 32 3 17 3 29 0
26 -3 -4 -25 14 -47 40 -23 25 -77 83 -119 128 -43 46 -78 88 -78 94 0 6 4 9
9 5 5 -3 12 -1 15 3 3 5 -14 15 -37 21 -86 26 -129 53 -198 126 -16 17 -29 33
-29 37 0 3 -8 5 -17 3 -10 -1 -12 0 -5 2 15 6 16 2 -7 49 -11 21 -24 66 -30
98 -13 73 -13 76 -1 76 6 0 10 -15 10 -33 0 -35 26 -125 41 -141 5 -6 9 0 10
15 l1 24 8 -25 c4 -14 11 -37 14 -51 6 -29 84 -122 95 -115 4 3 29 -6 56 -19
66 -34 147 -35 163 -3 l11 23 0 -23 c1 -21 4 -23 34 -17 51 11 109 41 149 77
36 33 95 128 79 128 -19 0 -38 271 -22 311 8 20 10 14 10 -33 1 -67 17 -78 23
-17 9 94 -93 225 -210 270 -47 17 -70 20 -134 15 -48 -3 -78 -2 -78 4 0 16
-134 4 -169 -14 -17 -9 -31 -13 -31 -9 0 5 -4 3 -8 -2 -4 -6 -24 -23 -45 -39
-64 -47 -118 -103 -139 -143 -11 -21 -31 -49 -44 -64 -19 -20 -24 -37 -25 -80
l-1 -54 -14 50 -14 50 4 -62 c2 -35 0 -66 -6 -69 -16 -10 -23 6 -8 17 11 8 12
12 3 16 -8 3 -13 24 -13 54 0 51 -15 66 -26 25 -5 -19 5 -89 20 -146 3 -8 5
-31 6 -50 l2 -35 13 30 c8 17 14 40 15 52 0 12 5 25 12 29 8 5 9 -6 5 -40 -16
-113 -139 -267 -245 -306 -77 -29 -226 -27 -283 4 -21 11 -39 24 -39 29 0 10
24 9 35 -2 16 -15 107 -38 140 -36 45 3 45 3 45 25 0 11 5 20 10 20 6 0 10 -9
10 -20 0 -24 2 -24 68 -5 52 16 143 80 161 114 8 14 7 27 -3 46 -12 23 -14 24
-21 8 -5 -11 -9 -14 -12 -6 -2 6 4 24 14 40 10 15 12 24 6 20 -13 -8 -13 16 2
118 4 28 4 47 1 44 -12 -11 -36 -111 -36 -148 0 -25 -4 -32 -14 -28 -27 11
-41 -23 -42 -101 0 -49 -5 -77 -12 -80 -13 -4 -14 10 -3 85 7 51 7 52 -11 37
-10 -10 -21 -39 -24 -68 -4 -28 -9 -45 -11 -38 -9 25 -23 11 -17 -16 7 -24 6
-26 -9 -13 -10 7 -17 20 -17 28 0 8 -4 11 -10 8 -12 -7 -13 25 -1 43 7 11 9
11 14 -2 4 -9 12 -16 19 -15 10 0 10 2 1 6 -7 2 -13 9 -13 14 0 4 7 6 15 3 10
-4 15 0 15 14 0 20 -1 20 -31 5 -23 -12 -48 -14 -95 -10 -44 4 -64 3 -68 -6
-3 -7 -7 -4 -11 8 -3 11 -31 38 -62 61 -44 33 -59 51 -76 95 -24 64 -25 145
-1 207 20 54 120 150 158 152 4 0 -13 -15 -40 -32 -26 -18 -50 -40 -53 -48 -4
-13 -2 -13 15 0 18 14 18 14 5 -2 -7 -10 -17 -16 -21 -13 -4 3 -14 -3 -21 -13
-12 -15 -12 -16 1 -5 10 7 21 8 30 3 8 -5 18 -6 24 -3 5 4 7 -1 3 -10 -4 -11
-1 -15 14 -12 11 2 19 -2 19 -10 0 -8 6 -12 14 -9 27 10 116 -59 143 -109 8
-16 12 -31 9 -34 -2 -3 -1 -16 4 -29 13 -34 -13 -96 -56 -134 -19 -16 -39 -30
-44 -30 -6 0 -10 -5 -10 -11 0 -7 16 -8 48 -3 189 27 287 251 174 402 -19 27
-22 38 -14 55 9 21 10 21 17 -8 5 -16 21 -55 37 -86 15 -31 29 -65 29 -75 1
-11 4 -5 8 11 6 27 8 25 14 -22 12 -87 26 -61 20 36 -3 49 -3 97 1 108 6 15
11 11 26 -22 11 -22 19 -32 20 -23 0 34 -70 145 -118 185 -82 69 -105 77 -219
78 -57 0 -103 3 -103 8 0 4 -24 7 -54 7 -34 0 -56 5 -59 13 -3 7 -6 5 -6 -5
-1 -10 -8 -18 -16 -18 -8 0 -12 6 -9 14 4 10 -1 12 -19 9 -28 -5 -57 19 -57
48 0 13 7 19 21 19 13 0 18 4 13 12 -5 8 0 9 14 6 12 -4 22 -2 22 4 0 5 5 6
10 3 6 -4 10 -3 9 2 -1 4 -1 15 0 23 1 12 5 11 16 -4 14 -19 15 -19 15 6 0 46
22 52 92 29 67 -22 128 -55 128 -69 0 -5 7 -9 15 -9 20 0 185 -84 185 -95 0
-4 7 -8 15 -8 20 0 85 -32 85 -42 0 -4 7 -8 15 -8 9 0 32 -8 53 -19 l37 -19
90 64 c50 36 108 74 129 85 22 11 51 33 65 48 21 23 32 27 63 23 25 -3 38 -10
41 -23 3 -10 1 -19 -5 -19 -5 0 -7 -4 -4 -9 8 -13 55 -20 59 -8 1 5 14 11 27
12 14 1 31 3 38 4 6 0 12 9 12 19 0 14 2 15 10 2 8 -12 10 -12 15 2 4 9 12 15
19 12 7 -3 29 7 49 20 32 22 37 23 38 8 0 -10 3 -12 6 -4 2 6 19 12 36 13 27
0 29 2 12 9 -19 7 -19 8 5 17 14 6 31 12 39 15 9 2 -20 23 -65 47 -58 32 -101
47 -164 58 -47 8 -87 17 -89 19 -2 2 2 24 8 50 7 26 9 60 6 76 -7 29 -7 29
-27 11 -21 -18 -21 -18 -5 13 9 17 29 44 44 60 49 49 95 81 78 54 -3 -6 1 -13
9 -16 13 -5 53 19 109 66 4 4 -3 6 -15 6 -13 -1 -27 -7 -31 -13 -14 -22 -25
-14 -32 25 -8 46 -66 187 -109 267 -42 79 -130 188 -200 248 -30 26 -58 47
-61 47 -4 0 -20 9 -36 21 -16 11 -66 35 -112 52 -79 30 -88 31 -242 32 -153 0
-163 -1 -217 -27 -154 -72 -252 -164 -421 -398 -26 -37 -8 -2 26 50 104 156
243 287 372 351 l80 40 141 0 c78 -1 166 -6 195 -12 115 -24 235 -89 321 -173
l46 -45 61 22 c58 21 78 37 46 37 -12 0 -14 8 -9 40 5 28 3 40 -5 40 -7 0 -10
-4 -7 -9 4 -5 -4 -7 -16 -3 -11 3 -19 1 -16 -4 11 -16 -56 -14 -99 4 l-43 17
38 33 c36 31 36 32 10 28 -14 -2 -36 -9 -47 -15 -17 -10 -20 -9 -15 4 4 10 2
15 -7 13 -9 -2 -14 5 -13 18 0 16 -4 21 -15 17 -9 -2 4 14 28 36 47 44 48 49
5 26 -15 -8 -30 -13 -32 -11 -2 2 10 31 27 65 17 33 31 66 31 73 0 12 -35 -50
-102 -179 -12 -24 -24 -43 -27 -43 -4 0 -7 44 -9 97 -3 118 -17 142 -21 37 -1
-42 -6 -86 -11 -98 -7 -19 -9 -19 -15 -3 -4 9 -16 17 -27 17 -25 0 -58 18 -58
32 0 6 7 5 18 -3 15 -13 16 -12 4 3 -8 10 -19 16 -25 15 -7 -1 -11 6 -11 15 1
10 -2 15 -7 13 -4 -3 -7 6 -6 19 2 31 -17 39 -21 10 -3 -23 -38 -39 -48 -23
-3 5 -10 7 -15 4 -17 -11 -9 10 18 50 44 66 153 208 187 244 21 23 25 30 11
23 -11 -5 -29 -20 -39 -31 -17 -19 -20 -19 -31 -4 -11 14 -17 15 -42 4 -17 -7
-47 -30 -69 -52 -21 -21 -41 -39 -45 -39 -4 0 -21 -13 -38 -29 -52 -49 -111
-29 -151 49 -20 39 -15 63 33 175 15 33 21 51 14 41 -7 -10 -30 -40 -51 -65
l-39 -46 6 35 c5 26 4 31 -4 20 -8 -11 -9 -7 -4 16 4 20 0 47 -10 70 -23 56
-26 98 -10 151 19 61 19 68 0 53 -8 -7 -15 -19 -15 -26 0 -11 -5 -10 -19 4
-10 9 -18 19 -18 22 2 15 -16 50 -25 50 -5 0 -7 -7 -4 -16z m93 -286 c-3 -8
-6 -5 -6 6 -1 11 2 17 5 13 3 -3 4 -12 1 -19z m8 -136 c-7 -15 -9 -14 -15 8
-5 14 -8 39 -8 55 -1 30 -1 30 15 -8 8 -21 12 -45 8 -55z m-675 -287 c13 -14
19 -25 14 -25 -8 1 -50 50 -41 50 2 0 14 -11 27 -25z m100 -106 c0 -6 -4 -7
-10 -4 -5 3 -10 11 -10 16 0 6 5 7 10 4 6 -3 10 -11 10 -16z m-53 -55 c-3 -3
-12 -4 -19 -1 -8 3 -5 6 6 6 11 1 17 -2 13 -5z m40 -10 c-3 -3 -12 -4 -19 -1
-8 3 -5 6 6 6 11 1 17 -2 13 -5z m703 -24 c0 -14 -10 -21 -36 -26 -43 -8 -62
6 -37 28 19 17 53 27 66 21 4 -2 7 -13 7 -23z m110 10 c0 -17 -7 -20 -50 -20
-37 0 -50 4 -50 14 0 16 19 23 68 25 26 1 32 -3 32 -19z m84 14 c9 -3 16 -14
16 -23 0 -13 2 -13 9 -2 13 20 64 10 145 -29 198 -92 356 -298 411 -537 12
-50 11 -54 -6 -64 -14 -7 -20 -6 -24 3 -2 7 -13 44 -24 81 -57 190 -187 367
-336 459 -44 27 -163 68 -198 68 -37 0 -67 12 -67 25 0 21 41 32 74 19z m-294
-48 c0 -20 -45 -37 -60 -23 -10 9 -11 9 -6 0 4 -7 2 -13 -3 -13 -26 0 -4 36
29 48 28 11 40 7 40 -12z m-90 -45 c0 -4 -14 -15 -31 -25 -28 -16 -33 -17 -46
-3 -14 14 -13 18 18 36 24 15 36 17 46 9 7 -6 13 -13 13 -17z m298 2 c-3 -25
-7 -28 -43 -29 -22 -1 -48 -4 -58 -9 -9 -4 -28 -5 -42 -3 -13 3 -22 1 -19 -4
3 -4 -3 -11 -13 -14 -56 -19 -135 -65 -186 -108 -57 -49 -57 -49 -79 -30 l-22
19 18 -28 c18 -29 18 -29 -12 -66 -17 -21 -37 -54 -45 -74 -9 -20 -24 -41 -35
-48 -12 -8 -17 -20 -14 -35 2 -13 -3 -35 -12 -49 -14 -21 -19 -23 -41 -13 -20
9 -23 16 -18 37 9 41 24 63 37 58 9 -4 11 2 9 18 -3 12 2 37 11 54 14 26 20
30 36 21 27 -15 38 -12 16 5 -29 22 -7 62 77 140 94 86 103 94 133 107 22 10
28 9 40 -7 8 -10 14 -14 14 -8 0 7 -5 15 -11 18 -15 10 17 29 81 48 56 17 77
20 143 25 37 3 38 2 35 -25z m130 13 c175 -47 318 -169 418 -359 34 -65 74
-186 74 -225 0 -19 -36 -59 -45 -50 -3 3 -14 38 -25 79 -63 243 -215 420 -419
489 -33 11 -74 20 -91 20 -27 0 -30 3 -30 30 0 27 3 30 33 30 17 0 56 -7 85
-14z m-538 -66 c12 -8 10 -14 -15 -40 -16 -16 -34 -30 -41 -30 -23 0 -21 25 4
53 29 30 31 31 52 17z m358 -25 c20 -14 21 -14 16 0 -7 17 21 22 31 5 3 -6 15
-6 30 0 16 6 27 6 31 -1 3 -6 12 -8 20 -5 8 3 24 1 34 -4 11 -6 29 -14 40 -20
11 -5 25 -10 31 -10 38 0 249 -194 249 -230 0 -9 7 -25 15 -36 8 -10 15 -29
15 -40 0 -12 7 -27 15 -34 8 -7 15 -24 14 -39 0 -14 6 -57 15 -96 9 -38 13
-79 10 -90 -5 -18 -53 -127 -73 -165 -8 -15 -109 -88 -123 -89 -4 -1 -48 -26
-98 -56 -50 -30 -98 -55 -108 -55 -9 0 -67 20 -127 45 -61 25 -113 45 -117 45
-4 0 -54 21 -111 46 -91 40 -107 51 -126 84 -12 21 -25 40 -29 42 -5 2 -29 29
-55 61 -26 32 -47 53 -47 46 0 -6 18 -32 41 -57 23 -26 50 -64 60 -85 l19 -37
-31 -19 c-19 -12 -60 -22 -103 -25 -59 -5 -88 -15 -174 -59 -99 -50 -103 -51
-117 -33 -35 47 -44 179 -26 386 7 81 14 108 51 188 46 99 67 122 25 28 -14
-31 -25 -65 -25 -74 0 -10 -5 -23 -10 -28 -16 -16 -30 -73 -20 -79 14 -8 79
-9 87 -1 4 4 2 11 -5 15 -20 12 10 87 34 83 28 -5 28 -7 10 -58 -16 -48 -14
-64 8 -64 8 0 16 16 20 38 10 59 19 69 50 49 25 -17 25 -18 11 -64 -8 -26 -13
-48 -12 -49 15 -11 88 -54 92 -54 4 0 3 5 0 10 -3 6 -3 16 2 23 4 6 9 44 9 82
1 39 10 90 19 115 10 25 18 60 19 79 1 34 18 52 30 32 4 -6 13 -8 22 -4 11 4
12 8 3 20 -10 11 -14 11 -21 1 -6 -8 -7 -4 -3 12 11 40 24 47 41 22 8 -12 20
-19 26 -16 7 5 4 13 -10 24 -18 15 -19 20 -7 36 13 18 14 18 37 -1 l23 -20
-18 21 c-16 20 -16 22 2 38 18 17 19 17 24 -1 4 -15 5 -14 6 4 1 23 46 61 58
49 3 -3 12 3 20 14 8 11 32 25 53 31 22 7 40 16 40 21 0 5 11 6 25 2 15 -4 25
-2 25 5 0 15 12 14 38 -4z m-449 -69 c9 -11 4 -23 -22 -57 -18 -24 -45 -65
-60 -92 -16 -26 -32 -45 -37 -42 -6 4 -7 -1 -3 -11 4 -12 3 -15 -5 -10 -17 10
-15 52 4 88 12 22 19 27 27 19 18 -18 24 -13 22 21 -1 22 6 43 24 65 29 37 34
39 50 19z m-970 -202 c14 -12 -19 -1 -35 12 -18 14 -18 14 6 3 14 -6 27 -13
29 -15z m841 -33 c0 -22 -32 -81 -44 -81 -17 0 -19 44 -4 82 8 23 13 26 29 17
11 -5 19 -13 19 -18z m-640 -32 c0 -6 -4 -7 -10 -4 -5 3 -10 11 -10 16 0 6 5
7 10 4 6 -3 10 -11 10 -16z m1803 -440 c-9 -9 -12 -7 -10 9 1 14 5 18 11 12 7
-7 6 -14 -1 -21z m-36 5 c-3 -3 -12 -4 -19 -1 -8 3 -5 6 6 6 11 1 17 -2 13 -5z
m-806 -71 c35 -16 53 -43 29 -43 -21 0 -80 35 -80 47 0 17 6 16 51 -4z m-86
-41 c-3 -3 -11 0 -18 7 -9 10 -8 11 6 5 10 -3 15 -9 12 -12z m80 -16 c17 -12
33 -25 36 -30 4 -5 12 -5 18 -1 7 4 18 2 25 -4 7 -6 90 -49 185 -96 l172 -86
42 24 c45 27 110 89 72 69 -11 -5 -40 -26 -65 -46 -38 -30 -47 -33 -60 -22 -8
7 -34 21 -57 32 -24 10 -43 21 -43 26 0 12 7 10 51 -13 22 -11 46 -18 52 -16
7 2 1 9 -13 15 -335 139 -350 146 -350 163 0 16 25 10 88 -21 34 -16 68 -30
75 -30 7 0 17 -4 23 -10 10 -10 133 -58 170 -67 20 -4 84 21 84 33 0 2 -13 -2
-29 -11 -28 -14 -35 -13 -101 11 -39 15 -69 29 -66 31 2 3 32 -5 66 -18 60
-22 63 -22 94 -5 18 9 39 14 48 11 9 -4 27 4 44 19 16 14 26 26 23 26 -3 0
-16 -9 -29 -20 -13 -11 -28 -20 -34 -20 -6 0 -6 3 0 8 5 4 22 18 37 32 20 18
30 21 36 12 6 -9 13 -9 34 1 15 6 27 15 27 20 0 4 9 7 20 7 11 0 20 -4 20 -8
0 -5 -44 -39 -97 -75 -54 -37 -111 -78 -128 -92 l-30 -25 35 20 c19 11 60 36
90 56 30 19 45 26 33 15 -36 -30 -27 -36 10 -6 74 61 111 85 130 85 20 0 20
-1 -3 -25 -13 -14 -30 -23 -37 -21 -7 3 -13 -1 -13 -9 0 -7 -22 -31 -50 -52
-27 -21 -49 -44 -50 -51 0 -7 -4 -11 -9 -8 -5 3 -14 -1 -21 -9 -7 -8 -19 -15
-26 -15 -8 0 -11 -6 -7 -17 4 -10 2 -14 -4 -10 -6 4 -24 -7 -41 -24 l-29 -30
-69 37 c-38 20 -73 40 -79 44 -5 4 -66 37 -134 71 -68 35 -148 77 -177 92 -50
26 -64 44 -48 60 7 7 13 4 59 -27z m205 -2 l25 -15 -25 7 c-14 3 -29 10 -34
15 -16 14 6 10 34 -7z m-1280 -45 c8 -11 30 -29 48 -40 28 -18 46 -52 25 -47
-5 0 -15 -1 -23 -4 -8 -3 -51 -11 -95 -18 -44 -7 -101 -23 -127 -36 -53 -27
-62 -40 -20 -29 74 19 101 13 67 -15 -8 -7 -15 -19 -15 -26 0 -15 26 -19 34
-6 6 10 48 8 64 -2 7 -4 9 -12 6 -18 -4 -7 -2 -8 5 -4 7 4 9 16 6 27 -9 28 12
49 50 49 53 0 61 -22 23 -60 -29 -29 -30 -31 -8 -20 22 11 20 8 -9 -24 -45
-47 -28 -46 40 3 57 40 72 39 76 -6 2 -17 -1 -21 -15 -17 -13 5 -14 4 -3 -4 7
-5 10 -15 7 -21 -5 -7 2 -11 18 -11 22 0 24 3 16 29 -6 22 -3 37 11 60 17 28
62 51 76 38 8 -9 -7 -77 -17 -77 -6 0 -10 -6 -10 -12 0 -7 -5 -30 -11 -50 -10
-38 -10 -38 -62 -38 -118 0 -288 66 -376 146 l-46 41 28 40 c40 58 96 109 157
142 30 17 57 31 60 31 3 0 12 -9 20 -21z m840 11 c13 -9 12 -12 -4 -25 -11 -8
-29 -12 -39 -9 -14 4 -17 3 -12 -6 5 -9 4 -11 -3 -6 -18 11 -14 34 6 45 22 13
33 13 52 1z m525 0 c8 -13 -5 -13 -25 0 -13 8 -13 10 2 10 9 0 20 -4 23 -10z
m-668 -97 c-3 -10 -5 -2 -5 17 0 19 2 27 5 18 2 -10 2 -26 0 -35z m-567 -68
c-7 -8 -17 -15 -22 -15 -6 0 -5 7 2 15 7 8 17 15 22 15 6 0 5 -7 -2 -15z m565
-22 c-3 -15 -16 -40 -29 -54 -37 -42 -124 -99 -141 -93 -8 4 -26 -1 -40 -10
-21 -14 -25 -14 -25 -2 0 15 21 26 51 26 11 0 22 7 25 15 4 8 13 15 21 15 8 0
12 4 9 8 -6 9 29 42 44 42 6 0 10 4 10 9 0 5 13 14 30 19 19 7 32 20 36 37 9
35 18 24 9 -12z m1208 17 c-52 -21 -103 -61 -103 -81 0 -11 -5 -19 -12 -17 -6
2 -25 -10 -40 -26 -18 -19 -25 -23 -19 -11 23 48 146 146 181 144 9 0 6 -4 -7
-9z m-968 -16 c-23 -18 -83 -50 -73 -39 4 4 22 18 40 31 36 25 65 33 33 8z
m-90 -102 c-3 -4 -10 -1 -14 6 -6 10 -13 6 -25 -13 -10 -15 -20 -24 -24 -21
-3 4 10 22 29 42 32 33 34 34 37 14 2 -12 1 -25 -3 -28z m365 -37 c16 -11 30
-24 30 -28 0 -4 -15 3 -33 17 -19 15 -38 26 -44 26 -6 0 -8 12 -5 28 l5 27 9
-25 c4 -14 22 -34 38 -45z m940 9 c0 -2 -11 2 -25 8 -14 6 -25 15 -25 20 0 5
11 1 25 -8 14 -9 25 -18 25 -20z m-1013 20 c-3 -3 -12 -4 -19 -1 -8 3 -5 6 6
6 11 1 17 -2 13 -5z m234 -40 c1 -10 -3 -30 -9 -44 -10 -24 -11 -24 -12 10 0
19 -3 46 -7 60 -6 23 -5 24 9 9 9 -9 17 -24 19 -35z m335 -38 c-9 -19 -16 -39
-16 -44 0 -6 -4 -13 -9 -17 -10 -6 5 59 21 88 17 33 21 9 4 -27z m504 28 c0
-9 14 -41 31 -72 23 -42 31 -69 30 -102 -2 -87 -6 -118 -13 -113 -5 2 -8 -9
-8 -26 0 -21 -4 -29 -13 -25 -9 3 -27 -15 -48 -45 -33 -49 -49 -62 -49 -40 0
5 -4 8 -9 5 -5 -3 -7 -15 -4 -26 3 -11 0 -20 -6 -20 -6 0 -11 7 -11 15 0 18 3
17 -37 6 -18 -5 -47 -6 -70 0 -31 7 -40 5 -50 -8 -12 -15 -13 -15 -13 3 0 13
-20 35 -56 62 -46 33 -61 51 -77 94 -25 67 -24 152 4 210 18 39 20 40 15 12
-4 -27 -2 -31 17 -30 12 1 33 -2 46 -6 14 -5 28 -4 35 1 21 18 116 -47 116
-79 0 -5 4 -10 9 -10 16 0 45 -105 37 -134 -6 -24 -32 -53 -82 -91 -36 -27 57
-18 112 11 66 35 82 50 112 109 34 66 35 160 4 222 -12 23 -26 44 -32 48 -13
8 -13 45 0 45 6 0 10 -7 10 -16z m-1445 -11 c-5 -10 -16 -40 -27 -68 -14 -39
-17 -43 -13 -17 5 34 33 102 42 102 3 0 2 -8 -2 -17z m-48 -165 c-3 -7 -5 -2
-5 12 0 14 2 19 5 13 2 -7 2 -19 0 -25z m29 -180 c17 -51 33 -63 35 -25 1 12
6 1 11 -25 7 -32 23 -62 50 -93 22 -25 35 -45 30 -45 -17 0 -98 97 -120 142
-23 51 -43 136 -41 181 1 20 5 9 10 -28 5 -32 16 -81 25 -107z m1558 69 c3
-43 2 -76 -3 -73 -10 6 -23 135 -15 148 9 15 11 8 18 -75z m-987 -139 c-3 -7
-5 -2 -5 12 0 14 2 19 5 13 2 -7 2 -19 0 -25z m306 15 c-7 -2 -19 -2 -25 0 -7
3 -2 5 12 5 14 0 19 -2 13 -5z m52 -3 c3 -5 2 -10 -4 -10 -5 0 -13 5 -16 10
-3 6 -2 10 4 10 5 0 13 -4 16 -10z m-106 -4 c-12 -10 -59 -15 -59 -6 0 5 14
10 32 10 17 0 29 -2 27 -4z m-1025 -81 c14 -81 14 -81 55 -42 31 30 71 46 71
28 0 -4 -20 -29 -45 -58 -62 -71 -57 -83 8 -16 44 46 55 53 65 41 9 -12 1 -28
-44 -84 l-55 -69 58 63 c53 56 86 81 67 50 -5 -8 -2 -9 10 -5 14 6 13 1 -5
-26 -13 -17 -43 -56 -67 -84 -25 -29 -40 -53 -34 -53 6 0 9 -8 7 -17 -1 -10 0
-12 2 -5 7 19 20 14 26 -10 4 -12 9 -19 12 -16 7 7 55 -39 55 -52 0 -6 5 -10
10 -10 6 0 10 4 10 10 0 5 7 7 15 4 11 -5 15 1 15 24 0 17 5 34 10 37 11 7 13
-9 4 -53 -5 -22 -13 -31 -33 -35 -14 -3 -29 0 -34 6 -5 9 -10 7 -18 -5 -5 -10
-16 -18 -24 -18 -12 0 -12 -5 1 -35 18 -44 18 -82 -1 -39 -18 41 -41 60 -49
39 -3 -8 -10 -15 -15 -15 -10 0 -58 118 -87 215 -21 70 -18 59 -28 115 -4 25
-10 54 -13 64 -4 15 -1 18 17 13 21 -5 21 -3 16 51 -6 62 7 53 18 -13z m1193
25 c-3 -11 -1 -17 4 -14 6 3 20 -5 32 -18 12 -12 39 -32 60 -43 82 -43 8 -49
-77 -6 -47 23 -59 26 -63 14 -3 -8 3 -20 14 -28 60 -42 102 -83 89 -88 -8 -3
-24 2 -37 11 -23 15 -23 15 -10 -1 15 -19 16 -18 -19 -33 -80 -35 -215 -57
-270 -45 -34 7 -34 8 -10 15 34 11 60 36 60 57 0 12 5 16 15 13 8 -4 15 -2 15
4 0 5 9 12 20 15 14 4 20 14 20 33 0 26 1 27 17 12 13 -14 14 -20 3 -32 -17
-21 -1 -20 22 1 10 9 18 24 18 35 0 10 6 18 13 18 8 0 28 23 46 50 34 53 47
63 38 30z m276 0 c3 -11 1 -18 -4 -14 -5 3 -9 12 -9 20 0 20 7 17 13 -6z m79
-5 c3 -14 1 -25 -3 -25 -5 0 -9 11 -9 25 0 14 2 25 4 25 2 0 6 -11 8 -25z
m-41 6 c6 10 9 8 9 -8 0 -13 -4 -23 -10 -23 -5 0 -10 2 -10 4 0 2 -2 10 -3 18
-2 7 -2 9 1 4 2 -4 8 -2 13 5z m-931 -38 c0 -10 -4 -14 -8 -8 -4 6 -11 13 -16
18 -5 4 -2 7 7 7 10 0 17 -8 17 -17z m-709 -73 c31 -23 68 -109 76 -180 3 -25
9 -49 13 -54 5 -5 6 -15 3 -22 -4 -11 -18 -5 -56 22 -28 21 -92 58 -142 83
l-91 46 10 33 c5 17 13 32 17 32 5 0 9 6 9 13 0 6 19 24 42 39 45 29 64 27
119 -12z m959 9 c0 -5 -20 -32 -45 -58 -47 -51 -53 -61 -32 -61 6 0 22 15 35
34 33 48 69 79 82 71 8 -5 -6 -26 -41 -61 -52 -52 -52 -54 -26 -54 15 0 27 5
27 11 0 18 60 89 76 89 20 0 18 -7 -21 -54 -40 -49 -41 -53 -17 -59 9 -3 3 -5
-14 -6 -17 0 -56 7 -88 18 -31 10 -59 15 -62 10 -5 -9 -54 10 -54 20 0 4 10
15 21 25 21 18 22 18 15 -8 -5 -19 -3 -26 9 -26 8 0 15 5 15 10 0 6 0 12 0 15
0 2 23 27 50 55 45 46 70 56 70 29z m-1307 -27 c17 -16 25 -32 21 -42 -3 -8
-7 -19 -8 -25 -1 -5 -6 -11 -11 -13 -9 -3 -15 5 -35 48 -4 8 -18 15 -31 15
-20 0 -24 -5 -24 -32 0 -45 -13 -52 -27 -15 -7 18 -16 32 -20 32 -14 0 -8 38
9 55 23 24 90 12 126 -23z m817 8 c0 -5 -5 -10 -11 -10 -5 0 -7 5 -4 10 3 6 8
10 11 10 2 0 4 -4 4 -10z m1060 -70 c12 20 170 -159 221 -252 20 -37 -3 -16
-30 27 -32 50 -97 116 -105 107 -4 -3 -6 3 -6 12 0 24 -36 73 -63 87 l-22 12
21 -24 c35 -42 74 -108 74 -128 0 -10 7 -24 16 -32 16 -13 35 -47 79 -139 14
-30 30 -63 36 -73 5 -10 7 -22 3 -28 -3 -5 0 -17 7 -25 10 -12 9 -13 -5 -8
-10 4 -16 1 -16 -7 0 -27 -16 5 -26 54 -10 42 -12 46 -13 20 0 -17 -9 -58 -20
-92 -10 -33 -16 -62 -13 -65 7 -8 -20 -88 -35 -104 -16 -17 -34 -7 -27 16 5
14 4 15 -5 2 -6 -8 -11 -25 -11 -37 0 -13 -5 -23 -11 -23 -5 0 -7 -4 -4 -10 3
-6 -1 -7 -9 -4 -11 4 -16 0 -17 -12 -1 -17 -2 -17 -6 -1 -6 22 -8 22 -38 -5
-14 -12 -23 -28 -20 -36 3 -10 -1 -12 -15 -7 -15 5 -29 -2 -52 -27 l-31 -33 8
30 c16 62 24 111 25 151 0 33 5 44 31 63 25 19 29 25 18 33 -11 8 -10 9 3 5
21 -7 54 42 108 159 28 60 40 100 40 131 0 51 -26 153 -43 168 -7 6 -17 19
-23 30 -6 10 -22 28 -37 39 -22 16 -29 17 -42 6 -12 -10 -18 -10 -31 1 -14 12
-14 14 1 26 14 10 23 9 48 -3 21 -12 32 -13 37 -4z m-776 -15 c-10 -8 -24 -15
-30 -15 -20 0 -81 -64 -103 -106 -12 -23 -25 -61 -30 -85 -6 -31 -9 -36 -10
-17 -3 85 103 238 165 238 27 0 27 -1 8 -15z m661 -5 c-3 -5 -14 -10 -23 -9
-14 0 -13 2 3 9 27 11 27 11 20 0z m589 -92 c13 -19 14 -25 2 -43 -29 -43 -91
-25 -80 24 10 38 13 41 39 41 13 0 31 -10 39 -22z m-519 -15 c15 -16 31 -37
37 -48 5 -11 -9 0 -32 25 l-41 45 5 -33 c7 -41 -15 -96 -44 -112 -44 -24 -141
15 -160 64 -8 21 -8 21 -15 1 -15 -48 -33 -71 -64 -87 -31 -15 -38 -16 -70 -2
-46 19 -71 42 -87 79 l-12 30 -7 -30 c-16 -66 -90 -112 -127 -79 -10 10 -26
19 -34 20 -25 4 -53 34 -66 71 -9 24 -17 32 -28 28 -8 -3 -4 5 10 19 l25 25
75 -20 c64 -16 97 -19 220 -15 222 7 291 13 335 29 54 20 51 20 80 -10z
m-1762 -146 c33 -50 66 -151 53 -164 -3 -3 -14 5 -25 18 -11 13 -20 19 -21 12
0 -6 5 -15 10 -18 6 -3 10 -11 10 -16 0 -6 -13 -1 -30 11 -34 24 -39 14 -19
-37 8 -22 8 -26 -2 -16 -10 10 -15 7 -26 -18 -7 -17 -13 -43 -13 -57 0 -15
-16 -43 -42 -73 -74 -82 -88 -102 -88 -118 0 -13 -2 -13 -9 -2 -5 7 -14 10
-20 7 -7 -5 -11 3 -12 21 0 24 -1 25 -9 8 -7 -18 -8 -18 -15 7 -4 15 -5 48 -3
73 2 34 0 44 -10 40 -10 -3 -12 12 -9 70 4 79 0 85 -20 32 l-13 -32 3 43 c1
23 0 42 -3 42 -3 0 -16 -17 -28 -37 l-22 -38 1 40 c2 48 26 122 49 150 35 41
33 49 -4 25 -34 -20 -37 -21 -28 -4 29 53 126 97 202 90 19 -2 44 0 55 4 29
11 50 -4 88 -63z m771 51 c-11 -35 -12 -158 -1 -151 6 3 7 1 3 -5 -8 -13 13
-92 24 -92 4 0 10 -8 14 -17 3 -10 9 -24 12 -30 3 -7 1 -13 -5 -13 -17 0 -70
123 -80 188 -10 63 -4 99 21 129 16 19 20 16 12 -9z m1470 0 c26 -42 -45 -115
-77 -77 -7 7 -8 11 -3 7 6 -5 17 -8 24 -8 10 0 6 9 -12 25 -29 26 -33 44 -14
63 17 17 69 11 82 -10z m-1257 -33 c-1 -25 -6 -40 -11 -35 -8 8 0 80 9 80 2 0
3 -20 2 -45z m-722 -1 c31 -14 59 -35 73 -56 26 -40 27 -56 7 -82 -21 -28 -18
-43 10 -50 49 -12 26 -27 -32 -21 -34 4 -91 0 -136 -8 -43 -7 -80 -10 -83 -5
-3 4 0 8 5 8 16 0 13 26 -3 39 -7 6 -17 40 -21 75 -4 43 -11 66 -21 70 -41 16
40 56 106 54 25 -1 68 -12 95 -24z m613 -94 c1 -28 -1 -31 -8 -15 -5 11 -8 38
-8 60 0 34 1 36 8 15 4 -14 8 -41 8 -60z m1196 36 c-3 -15 -8 -25 -11 -23 -2
3 -1 17 3 31 3 15 8 25 11 23 2 -3 1 -17 -3 -31z m-1360 -132 c3 -8 1 -14 -3
-14 -11 0 -31 55 -31 85 0 43 15 36 22 -10 4 -26 9 -53 12 -61z m1490 81 c18
-18 11 -41 -14 -55 -41 -22 -68 21 -34 54 19 20 29 20 48 1z m-682 -40 c4 -52
-7 -47 -17 8 -5 23 -3 37 3 37 5 0 12 -20 14 -45z m-104 10 c-3 -3 -9 2 -12
12 -6 14 -5 15 5 6 7 -7 10 -15 7 -18z m-790 -47 c18 -43 5 -33 -19 15 -12 23
-15 35 -7 27 8 -8 20 -27 26 -42z m116 -60 c3 -13 6 -27 6 -33 -1 -15 -30 27
-30 42 0 22 17 15 24 -9z m216 -3 c13 -14 21 -25 18 -25 -2 0 -15 11 -28 25
-13 14 -21 25 -18 25 2 0 15 -11 28 -25z m-569 -7 c7 -10 -12 -14 -94 -19 -56
-4 -115 -12 -131 -18 -35 -14 -46 -7 -24 15 38 39 229 55 249 22z m293 -34
c23 -50 15 -53 -13 -4 -12 22 -18 40 -13 40 4 0 16 -16 26 -36z m1534 20 c7
-13 15 -14 45 -6 62 17 134 3 236 -46 107 -51 131 -71 131 -107 0 -26 -9 -32
-26 -16 -16 16 -196 82 -249 92 -27 5 -87 12 -133 16 -77 5 -85 4 -107 -17
-33 -31 -32 -38 10 -46 20 -3 40 -15 46 -26 8 -15 14 -17 22 -9 16 16 52 14
67 -3 6 -8 21 -16 33 -18 18 -2 22 -10 22 -43 l0 -40 75 -22 c41 -12 89 -22
105 -22 35 -1 155 -55 155 -71 0 -5 -17 -28 -39 -50 -49 -51 -72 -51 -167 0
-41 22 -80 40 -86 40 -7 0 -26 14 -43 30 -17 17 -51 36 -76 43 -39 12 -44 16
-41 39 3 22 -1 27 -17 25 -11 0 -18 -4 -15 -8 2 -3 -8 -6 -22 -6 -39 0 -50
-17 -30 -48 19 -30 59 -55 181 -117 124 -63 161 -78 194 -78 16 0 40 -10 55
-21 23 -18 27 -28 24 -63 -3 -37 -7 -43 -43 -61 -21 -11 -46 -26 -53 -33 -8
-7 -22 -10 -31 -7 -9 4 -46 17 -82 30 -87 30 -91 32 -179 105 l-75 61 -65 -1
c-159 -3 -190 -1 -184 15 8 21 -18 28 -60 17 -37 -11 -47 -3 -23 17 8 6 18 7
22 3 5 -4 5 1 2 11 -12 31 2 37 38 17 26 -15 33 -16 28 -5 -3 8 -1 15 4 15 5
0 13 -15 18 -32 9 -31 12 -33 50 -30 22 2 42 6 45 9 11 11 5 166 -7 179 -10
10 -10 14 1 23 18 15 36 88 36 146 0 52 12 61 55 45 25 -10 31 -8 56 22 16 18
31 41 34 51 8 22 51 23 63 1z m-1350 -59 c-3 -3 -13 7 -23 22 l-17 28 23 -22
c12 -12 20 -25 17 -28z m631 -21 c13 -16 12 -16 -6 1 -12 11 -24 31 -27 45
l-6 25 13 -26 c6 -14 18 -35 26 -45z m-569 -31 c0 -18 -3 -17 -30 12 l-23 25
26 -13 c15 -6 27 -18 27 -24z m-482 -40 c14 -21 22 -46 19 -60 -2 -12 0 -20 4
-17 5 3 9 13 9 22 0 14 2 15 10 2 6 -9 5 -17 -2 -21 -6 -4 -7 -12 -3 -19 6 -9
4 -11 -5 -5 -7 5 -43 8 -79 8 -60 -1 -68 1 -92 27 -15 16 -30 26 -35 22 -4 -4
-4 -2 -1 4 3 6 -3 21 -14 32 l-19 22 27 6 c16 3 33 7 38 9 6 2 35 4 65 4 53 0
56 -1 78 -36z m1532 3 c0 -6 -13 -20 -30 -29 -35 -21 -36 -18 -14 29 13 27 19
32 30 23 8 -6 14 -17 14 -23z m747 -58 c-3 -7 -5 -2 -5 12 0 14 2 19 5 13 2
-7 2 -19 0 -25z m-2104 -16 c9 -8 17 -19 17 -24 0 -18 -28 -6 -54 23 -27 30
-27 31 -4 24 12 -4 31 -14 41 -23z m387 -2 c13 -8 13 -10 -2 -10 -9 0 -20 5
-23 10 -8 13 5 13 25 0z m870 -30 c0 -5 -4 -10 -10 -10 -5 0 -10 5 -10 10 0 6
5 10 10 10 6 0 10 -4 10 -10z m-733 -26 c-3 -3 -12 -4 -19 -1 -8 3 -5 6 6 6
11 1 17 -2 13 -5z m578 -35 c-6 -19 -9 -20 -16 -6 -11 20 0 52 13 39 6 -6 7
-20 3 -33z m-1745 -103 c0 -3 -4 -8 -10 -11 -5 -3 -10 -1 -10 4 0 6 5 11 10
11 6 0 10 -2 10 -4z m51 -117 c43 -34 49 -49 20 -49 -11 0 -33 -12 -50 -26
-29 -24 -32 -24 -47 -9 -9 9 -24 13 -33 10 -9 -4 -29 -9 -45 -12 -25 -5 -27
-4 -18 13 5 10 21 31 35 46 14 15 23 29 21 31 -4 4 5 5 45 9 11 1 17 6 15 10
-12 19 21 6 57 -23z m1793 25 c-6 -3 -9 -15 -7 -28 4 -17 12 -23 31 -23 43 -1
130 -27 146 -43 8 -8 18 -27 21 -42 6 -22 3 -29 -11 -34 -11 -3 -35 -12 -55
-21 l-36 -15 -61 46 c-33 25 -62 53 -66 61 -3 9 -19 21 -36 27 -17 5 -35 19
-41 30 -15 28 9 43 74 44 29 1 47 0 41 -2z m-1003 -81 c-4 -216 -18 -284 -55
-270 -17 7 -36 66 -36 115 0 37 -5 39 -44 13 -17 -11 -32 -18 -36 -16 -12 7 2
85 15 85 7 0 23 20 34 44 20 40 61 89 61 72 0 -4 12 2 27 13 14 12 28 19 31
17 2 -3 4 -36 3 -73z m-435 -90 c-8 -15 -21 -42 -30 -60 -15 -33 -61 -63 -96
-63 -43 0 -30 19 94 137 42 40 58 33 32 -14z m-475 -13 c27 -15 12 -39 -44
-68 -42 -22 -46 -23 -81 -8 -46 19 -46 36 2 64 40 23 92 28 123 12z m722 -75
c-3 -9 -8 -14 -10 -11 -3 3 -2 9 2 15 9 16 15 13 8 -4z"/>
<path d="M1975 2740 c-3 -5 1 -10 10 -10 9 0 13 5 10 10 -3 6 -8 10 -10 10 -2
0 -7 -4 -10 -10z"/>
<path d="M1910 2720 c0 -5 7 -7 15 -4 8 4 15 8 15 10 0 2 -7 4 -15 4 -8 0 -15
-4 -15 -10z"/>
<path d="M1751 2614 c0 -11 3 -14 6 -6 3 7 2 16 -1 19 -3 4 -6 -2 -5 -13z"/>
<path d="M3033 2015 c-47 -33 -52 -119 -11 -177 25 -36 60 -36 87 -2 38 48 22
170 -24 188 -23 9 -28 8 -52 -9z m77 -46 c0 -6 -4 -7 -10 -4 -5 3 -10 11 -10
16 0 6 5 7 10 4 6 -3 10 -11 10 -16z"/>
<path d="M3311 1044 c0 -11 3 -14 6 -6 3 7 2 16 -1 19 -3 4 -6 -2 -5 -13z"/>
<path d="M3181 944 c0 -11 3 -14 6 -6 3 7 2 16 -1 19 -3 4 -6 -2 -5 -13z"/>
<path d="M2345 1350 c-3 -6 2 -13 12 -17 23 -8 35 -26 22 -33 -5 -4 2 -20 17
-36 19 -21 24 -24 19 -9 -4 11 -12 36 -17 55 -13 44 -38 64 -53 40z"/>
<path d="M1040 971 c0 -25 6 -27 13 -6 4 8 2 17 -3 20 -6 4 -10 -3 -10 -14z"/>
<path d="M1484 1104 c-10 -27 -21 -53 -23 -58 -2 -5 9 -5 25 -1 16 4 44 11 61
14 l33 6 -38 44 -38 44 -20 -49z"/>
<path d="M3514 716 c3 -42 8 -49 30 -40 22 8 20 18 -9 50 l-24 26 3 -36z"/>
<path d="M2740 4490 c0 -5 6 -13 14 -17 7 -4 22 -26 32 -48 11 -22 26 -40 34
-40 23 1 91 37 97 51 2 7 12 10 20 7 10 -4 14 -2 10 4 -4 6 7 16 23 23 17 7
33 17 36 21 3 5 -56 9 -130 9 -79 0 -136 -4 -136 -10z"/>
<path d="M3405 4478 c14 -59 21 -158 11 -162 -6 -2 23 -2 64 1 90 6 110 22
110 88 0 24 4 55 10 69 l10 26 -105 0 c-104 0 -105 0 -100 -22z"/>
<path d="M3625 4433 c-37 -145 -46 -199 -40 -240 6 -41 8 -43 39 -43 29 0 78
-23 66 -32 -3 -2 -25 -10 -50 -18 -32 -11 -46 -22 -51 -40 -12 -42 -10 -125 3
-138 7 -7 32 -12 57 -12 l45 0 -42 -36 c-36 -30 -42 -41 -41 -72 0 -35 36
-160 38 -135 1 8 18 11 50 9 44 -3 50 0 60 21 l11 24 22 -21 c22 -20 32 -24
55 -21 19 3 27 -46 12 -67 -12 -16 -12 -16 5 -1 16 15 17 23 8 65 -6 27 -9 50
-7 53 2 2 19 -5 37 -16 l34 -20 17 23 c9 13 17 26 17 31 0 4 -9 -3 -19 -16
-18 -24 -20 -24 -45 -8 -21 14 -26 25 -26 61 0 72 12 139 22 124 5 -8 6 -3 2
15 -8 36 4 119 17 111 6 -3 8 -11 6 -17 -5 -16 19 -81 32 -85 7 -2 11 12 11
39 0 95 64 359 116 477 l23 52 -233 0 -233 0 -18 -67z"/>
<path d="M4160 4468 c4 -18 22 -87 39 -153 43 -166 61 -283 61 -401 l0 -101
32 -7 32 -6 -27 -28 c-15 -16 -25 -31 -22 -34 3 -3 -2 -22 -11 -43 l-16 -38
56 -81 c58 -86 163 -211 184 -220 9 -4 12 113 12 569 l0 575 -174 0 -174 0 8
-32z"/>
<path d="M3161 4410 c-13 -11 -19 -20 -14 -20 6 0 18 9 28 20 23 25 17 25 -14
0z"/>
<path d="M3079 4343 c-13 -16 -12 -17 4 -4 16 13 21 21 13 21 -2 0 -10 -8 -17
-17z"/>
<path d="M1871 4324 c0 -11 3 -14 6 -6 3 7 2 16 -1 19 -3 4 -6 -2 -5 -13z"/>
<path d="M3148 4207 c-26 -51 -61 -116 -78 -144 -17 -29 -28 -53 -26 -53 18 0
165 274 154 285 -2 3 -25 -37 -50 -88z"/>
<path d="M755 4280 c3 -5 8 -10 11 -10 2 0 4 5 4 10 0 6 -5 10 -11 10 -5 0 -7
-4 -4 -10z"/>
<path d="M1861 4068 c-1 -86 3 -159 7 -162 8 -5 5 286 -3 309 -2 6 -4 -61 -4
-147z"/>
<path d="M17 4186 c-15 -12 -17 -35 -17 -232 0 -210 1 -222 26 -289 21 -59 24
-64 21 -31 -3 31 1 41 20 53 22 15 25 14 48 -13 13 -15 22 -30 20 -33 -11 -10
20 -31 45 -31 16 0 30 -7 34 -15 4 -11 -2 -15 -20 -15 -18 0 -25 -4 -21 -14 3
-8 3 -17 -1 -20 -12 -13 -10 -35 5 -40 8 -3 11 -10 8 -16 -4 -6 8 -10 30 -10
30 0 35 3 31 18 -3 11 4 24 19 35 24 17 25 17 25 -1 0 -10 -10 -31 -22 -48
-17 -21 -30 -28 -49 -26 -20 2 -27 -1 -25 -14 0 -11 -11 -21 -32 -28 l-33 -11
32 -12 c28 -11 31 -15 25 -40 -4 -15 -7 -34 -8 -40 -2 -18 -23 -16 -39 4 -10
11 -10 14 -1 9 18 -11 14 2 -8 24 -11 11 -25 40 -31 65 -6 25 -14 45 -18 45
-4 0 -5 -44 -3 -97 2 -70 0 -94 -7 -83 -6 8 -11 40 -11 70 0 33 -6 64 -15 77
-8 12 -16 31 -18 42 -2 12 -9 27 -15 33 -9 9 -12 -96 -12 -463 l1 -474 23 28
c23 28 25 29 77 19 l54 -10 -56 -1 c-57 -1 -88 -18 -74 -41 4 -6 1 -9 -7 -8
-7 2 -14 -7 -16 -19 -3 -22 -1 -23 81 -23 98 0 123 6 107 25 -8 10 -8 15 1 21
8 4 4 11 -12 20 -22 12 -22 13 -4 14 24 0 47 33 39 55 -4 9 -1 15 9 15 8 0 15
6 14 13 -1 23 27 76 43 81 8 2 -24 4 -72 5 -49 0 -88 3 -88 6 0 3 16 44 36 92
60 144 93 288 95 412 1 36 4 80 8 96 6 27 8 28 18 11 10 -18 13 -18 59 -3 27
9 51 14 53 11 2 -2 -9 -21 -26 -42 l-31 -38 21 -24 c11 -14 33 -53 48 -87 27
-57 29 -73 29 -180 l1 -118 19 50 c19 47 19 53 4 98 -9 26 -14 53 -11 60 2 6
7 -3 11 -20 4 -18 11 -35 15 -37 10 -6 7 250 -3 289 -6 22 -5 26 3 15 9 -13
11 -13 11 3 0 9 -6 17 -14 17 -7 0 -16 10 -19 23 -6 21 -6 21 8 3 8 -11 15
-16 16 -10 4 37 3 88 -3 97 -4 6 2 26 13 43 19 31 19 33 2 43 -28 16 -6 13 27
-4 l29 -15 16 52 c20 67 19 68 -10 68 -22 0 -63 32 -66 52 -1 4 -2 13 -3 20 0
6 -7 13 -15 16 -8 3 -11 0 -8 -6 4 -5 0 -15 -7 -21 -11 -9 -16 -9 -22 0 -4 8
-3 9 4 5 7 -4 12 -3 12 2 0 6 -6 12 -14 15 -8 3 -16 16 -18 29 -2 16 -9 22
-21 20 -22 -4 -45 19 -59 58 -8 23 -13 28 -23 20 -9 -8 -14 -6 -19 6 -4 9 -13
14 -21 10 -11 -4 -15 2 -15 24 0 45 -57 80 -135 81 -106 2 -21 17 100 18 130
1 202 -15 293 -64 73 -41 76 -41 62 -15 -6 11 -17 17 -24 14 -8 -3 -24 4 -35
15 -12 12 -23 21 -26 21 -3 0 -12 0 -20 0 -9 0 -20 11 -25 24 -7 18 -14 23
-29 19 -13 -3 -21 -1 -21 7 0 7 -7 10 -15 6 -8 -3 -15 -2 -15 3 0 11 -130 66
-160 67 -14 0 -28 -4 -32 -10 -6 -8 -10 -7 -16 1 -9 15 -59 19 -87 8 -33 -13
-12 3 46 35 l54 30 -57 -4 c-37 -3 -57 -1 -55 6 3 16 -16 19 -36 4z m350 -418
c-3 -8 -6 -5 -6 6 -1 11 2 17 5 13 3 -3 4 -12 1 -19z m-293 -63 c-10 -8 -23
-14 -29 -14 -5 0 -1 6 9 14 11 8 24 15 30 15 5 0 1 -7 -10 -15z m337 -193 c-6
-11 -6 -25 0 -37 10 -19 10 -19 -5 -1 -11 14 -13 24 -5 37 5 11 12 19 15 19 2
0 0 -8 -5 -18z"/>
<path d="M2849 4153 c-13 -16 -12 -17 4 -4 16 13 21 21 13 21 -2 0 -10 -8 -17
-17z"/>
<path d="M1131 4067 c-1 -22 30 -149 35 -144 3 2 -4 40 -15 83 -11 43 -20 71
-20 61z"/>
<path d="M2380 4061 c0 -13 58 -121 65 -121 7 0 -7 34 -21 50 -7 9 -20 31 -28
50 -8 19 -15 29 -16 21z"/>
<path d="M950 4000 c6 -11 13 -20 16 -20 2 0 0 9 -6 20 -6 11 -13 20 -16 20
-2 0 0 -9 6 -20z"/>
<path d="M1318 4013 c7 -3 16 -2 19 1 4 3 -2 6 -13 5 -11 0 -14 -3 -6 -6z"/>
<path d="M1350 4006 c0 -2 9 -6 20 -9 11 -3 18 -1 14 4 -5 9 -34 13 -34 5z"/>
<path d="M2961 3984 c0 -11 3 -14 6 -6 3 7 2 16 -1 19 -3 4 -6 -2 -5 -13z"/>
<path d="M2995 3944 c-15 -25 -25 -47 -22 -50 2 -2 16 18 31 46 34 63 27 66
-9 4z"/>
<path d="M771 3964 c0 -11 3 -14 6 -6 3 7 2 16 -1 19 -3 4 -6 -2 -5 -13z"/>
<path d="M1475 3950 c10 -11 20 -20 23 -20 3 0 -3 9 -13 20 -10 11 -20 20 -23
20 -3 0 3 -9 13 -20z"/>
<path d="M1911 3882 c13 -10 39 -29 57 -41 33 -23 33 -23 21 -2 -8 11 -19 21
-25 21 -6 0 -21 9 -34 20 -13 11 -27 20 -33 20 -5 0 1 -8 14 -18z"/>
<path d="M2006 3875 c6 -13 111 -51 120 -42 3 3 -10 8 -28 12 -18 4 -47 15
-65 25 -22 13 -30 14 -27 5z"/>
<path d="M3920 3870 c0 -5 5 -10 11 -10 5 0 7 5 4 10 -3 6 -8 10 -11 10 -2 0
-4 -4 -4 -10z"/>
<path d="M912 3590 c0 -19 2 -27 5 -17 2 9 2 25 0 35 -3 9 -5 1 -5 -18z"/>
<path d="M1070 3591 c0 -5 6 -16 13 -23 15 -16 19 -81 5 -72 -11 7 -5 -17 19
-74 9 -22 19 -32 28 -28 10 3 16 -7 22 -37 7 -33 17 -47 49 -70 23 -16 48 -27
57 -25 13 2 9 13 -17 58 -18 30 -46 80 -63 110 -32 60 -103 170 -109 170 -2 0
-4 -4 -4 -9z"/>
<path d="M854 3443 c-34 -54 -64 -102 -67 -108 -3 -6 48 -10 144 -10 82 0 149
2 149 4 0 14 -149 211 -160 211 -3 0 -33 -44 -66 -97z"/>
<path d="M72 3490 c0 -14 2 -19 5 -12 2 6 2 18 0 25 -3 6 -5 1 -5 -13z"/>
<path d="M592 3305 c0 -16 2 -22 5 -12 2 9 2 23 0 30 -3 6 -5 -1 -5 -18z"/>
<path d="M4054 3318 c-10 -15 2 -19 47 -16 l44 3 -43 11 c-26 7 -45 8 -48 2z"/>
<path d="M4396 3281 c-3 -4 -16 -6 -29 -4 -14 3 -29 -2 -36 -11 -16 -19 -1
-21 19 -3 8 6 6 2 -4 -10 -11 -13 -25 -23 -33 -23 -7 0 -13 -4 -13 -9 0 -5
-10 -13 -22 -17 -21 -6 -21 -7 5 -21 15 -7 27 -18 27 -23 0 -6 7 -10 15 -10
31 0 64 -23 67 -48 3 -29 44 -48 84 -38 25 7 25 7 22 109 -2 69 -7 102 -15
102 -6 0 -15 3 -19 8 -10 10 -62 9 -68 -2z"/>
<path d="M4054 3271 c-2 -2 -4 -10 -4 -17 0 -10 6 -11 26 -4 14 6 29 8 33 6 4
-3 13 -1 20 3 9 6 -1 10 -28 13 -23 2 -44 2 -47 -1z"/>
<path d="M1040 3225 c14 -8 30 -14 35 -14 6 0 -1 6 -15 14 -14 8 -29 14 -35
14 -5 0 1 -6 15 -14z"/>
<path d="M4056 3222 c-3 -5 -3 -40 0 -79 4 -63 1 -79 -25 -135 -39 -86 -55
-159 -46 -216 4 -26 7 -49 7 -52 0 -3 4 -11 10 -17 13 -16 -4 -17 -20 -1 -8 8
-8 1 1 -28 7 -23 13 -32 15 -21 2 9 8 17 14 17 8 0 2 -285 -7 -300 -2 -3 -6
-84 -9 -180 -4 -96 -9 -231 -13 -300 -4 -69 -6 -140 -6 -157 2 -34 -5 -41 -23
-23 -8 8 -15 5 -25 -7 -13 -16 -12 -17 2 -5 31 24 41 -8 38 -120 l-3 -103 46
-47 45 -48 1 55 c0 30 -4 57 -9 61 -5 3 -9 -3 -9 -13 -1 -17 -1 -17 -11 0 -7
12 -8 39 -3 75 4 32 7 199 7 372 -1 173 1 305 4 292 4 -19 7 -21 19 -11 7 6
11 16 7 22 -3 6 -5 49 -4 96 1 62 6 88 16 94 8 4 17 32 21 67 4 33 11 63 16
66 5 3 24 -10 42 -29 32 -35 56 -98 56 -151 0 -19 4 -24 16 -19 13 5 15 16 11
57 l-6 51 19 -35 c18 -33 19 -34 20 -9 0 32 -45 102 -104 159 l-46 44 0 74 0
74 35 -31 c20 -17 41 -31 48 -31 24 -1 81 -92 97 -157 l17 -64 11 39 c7 22 12
52 12 67 0 21 4 26 16 21 36 -14 -22 57 -68 83 -26 14 -59 37 -75 51 -15 14
-32 25 -36 25 -5 0 -17 11 -27 25 -15 18 -20 41 -20 88 l0 64 26 -31 c39 -47
44 -37 12 25 -20 41 -28 71 -28 110 0 30 -4 55 -10 55 -5 1 -14 2 -19 3 -23 3
-21 16 3 22 35 9 33 24 -4 24 -20 0 -30 5 -30 15 0 10 10 15 32 15 39 0 34 5
-14 14 -20 4 -39 3 -42 -2z m124 -667 c19 -19 32 -35 29 -35 -3 0 -20 16 -39
35 -19 19 -32 35 -29 35 3 0 20 -16 39 -35z"/>
<path d="M3787 3203 c-4 -3 -7 -12 -7 -20 0 -7 -11 -35 -24 -62 l-23 -49 46
-5 c25 -3 58 -8 72 -12 24 -6 27 -3 38 37 14 50 4 91 -28 107 -22 12 -64 15
-74 4z"/>
<path d="M1155 3180 c3 -5 15 -10 25 -10 10 0 22 -5 25 -10 4 -6 11 -7 18 -3
6 4 -3 12 -24 19 -43 16 -52 17 -44 4z"/>
<path d="M3304 3115 c-23 -17 -38 -19 -29 -4 4 6 -2 5 -13 -2 -11 -7 -18 -19
-15 -26 7 -17 5 -18 60 17 26 17 40 30 32 30 -8 0 -24 -7 -35 -15z"/>
<path d="M941 3073 c-17 -3 -20 -7 -12 -13 16 -10 143 -1 156 11 9 9 -99 10
-144 2z"/>
<path d="M3951 2793 c-1 -23 4 -45 9 -48 12 -8 12 42 0 70 -7 16 -9 11 -9 -22z"/>
<path d="M3911 2764 c0 -11 3 -14 6 -6 3 7 2 16 -1 19 -3 4 -6 -2 -5 -13z"/>
<path d="M4371 2716 c23 -52 26 -91 16 -171 -3 -27 -3 -72 1 -100 8 -49 8 -47
16 45 13 158 8 197 -34 250 -19 24 -19 23 1 -24z"/>
<path d="M3911 2724 c0 -11 3 -14 6 -6 3 7 2 16 -1 19 -3 4 -6 -2 -5 -13z"/>
<path d="M3921 2684 c0 -11 3 -14 6 -6 3 7 2 16 -1 19 -3 4 -6 -2 -5 -13z"/>
<path d="M4130 2676 c0 -4 18 -28 40 -54 91 -109 84 -102 59 -55 -21 40 -99
126 -99 109z"/>
<path d="M4441 2634 c0 -11 3 -14 6 -6 3 7 2 16 -1 19 -3 4 -6 -2 -5 -13z"/>
<path d="M2 2461 l3 -36 69 -3 c56 -2 72 0 85 15 18 20 21 44 6 55 -5 5 -45 7
-88 7 l-78 -1 3 -37z"/>
<path d="M3328 2422 c-8 -28 15 -87 36 -95 9 -4 23 1 31 10 15 14 14 17 -1 34
-9 10 -25 21 -35 24 -10 3 -19 16 -21 28 l-3 22 -7 -23z"/>
<path d="M4485 2350 c3 -5 8 -10 11 -10 2 0 4 5 4 10 0 6 -5 10 -11 10 -5 0
-7 -4 -4 -10z"/>
<path d="M4321 2264 c0 -11 3 -14 6 -6 3 7 2 16 -1 19 -3 4 -6 -2 -5 -13z"/>
<path d="M4071 2154 c0 -11 3 -14 6 -6 3 7 2 16 -1 19 -3 4 -6 -2 -5 -13z"/>
<path d="M4260 2111 c-13 -26 -13 -31 3 -31 14 0 47 31 47 43 0 16 -40 5 -50
-12z"/>
<path d="M4045 2059 c-4 -6 -5 -12 -2 -15 2 -3 7 2 10 11 7 17 1 20 -8 4z"/>
<path d="M329 1929 c-1 -210 -3 -249 -13 -249 -5 0 -2 -8 5 -17 10 -12 11 -15
1 -9 -9 6 -11 2 -7 -16 3 -12 12 -57 20 -98 27 -132 43 -195 44 -181 2 28 -40
696 -45 700 -2 2 -4 -56 -5 -130z"/>
<path d="M2122 2023 c-21 -9 -42 -60 -42 -105 0 -61 31 -108 70 -108 23 0 33
7 46 33 47 88 -3 210 -74 180z m68 -61 c0 -15 -2 -15 -10 -2 -13 20 -13 33 0
25 6 -3 10 -14 10 -23z"/>
<path d="M4250 2021 c0 -5 7 -12 16 -15 14 -5 15 -4 4 9 -14 17 -20 19 -20 6z"/>
<path d="M3492 1985 c0 -16 2 -22 5 -12 2 9 2 23 0 30 -3 6 -5 -1 -5 -18z"/>
<path d="M3528 1910 c-4 -52 -5 -96 -3 -98 11 -11 22 81 16 133 l-6 60 -7 -95z"/>
<path d="M4474 1973 c-10 -16 -18 -35 -19 -43 0 -8 -6 -14 -13 -12 -8 1 -12
-5 -10 -15 4 -27 -10 -43 -38 -43 -13 0 -24 -5 -24 -10 0 -6 -8 -14 -17 -18
-32 -13 -117 -66 -135 -84 -11 -11 -14 -20 -7 -24 7 -4 0 -14 -16 -24 l-27
-18 39 -10 c25 -6 30 -10 16 -11 -13 -1 -23 -5 -23 -11 0 -14 43 -13 58 2 19
19 27 0 9 -20 -15 -16 -47 -102 -47 -125 0 -4 9 -3 20 3 11 6 20 7 20 3 0 -4
4 -3 8 3 4 6 26 21 50 33 23 12 42 26 42 32 0 6 5 7 10 4 12 -7 76 29 101 57
9 10 19 15 23 11 3 -3 6 73 6 170 0 98 -2 177 -4 177 -2 0 -12 -12 -22 -27z
m-50 -179 c20 -20 20 -33 -1 -56 -22 -24 -48 -23 -67 3 -33 47 28 94 68 53z"/>
<path d="M115 1930 c-4 -17 -5 -34 -2 -36 3 -3 8 9 12 26 4 17 5 34 2 36 -3 3
-8 -9 -12 -26z"/>
<path d="M4181 1929 c-1 -14 6 -34 14 -45 19 -25 19 -1 0 41 -13 30 -13 30
-14 4z"/>
<path d="M80 1886 c0 -13 -7 -30 -16 -37 -14 -11 -20 -10 -40 14 l-24 28 2
-64 c2 -59 4 -64 23 -59 39 10 65 34 75 71 6 22 6 37 0 39 -5 2 -6 10 -3 18 3
8 0 14 -6 14 -6 0 -11 -11 -11 -24z"/>
<path d="M2548 1875 c2 -19 6 -35 8 -35 2 0 4 16 4 35 0 19 -4 35 -8 35 -4 0
-6 -16 -4 -35z"/>
<path d="M3705 1880 c-3 -6 1 -13 10 -16 19 -8 30 0 20 15 -8 14 -22 14 -30 1z"/>
<path d="M4080 1849 c0 -11 4 -18 10 -14 5 3 7 12 3 20 -7 21 -13 19 -13 -6z"/>
<path d="M2551 1778 c-1 -61 3 -69 17 -40 5 10 4 32 -4 57 l-12 40 -1 -57z"/>
<path d="M73 1783 c-21 -8 -15 -20 16 -33 17 -6 48 -29 70 -51 34 -32 41 -35
41 -19 0 11 -4 20 -10 20 -5 0 -10 7 -10 15 0 8 -9 19 -20 25 -11 6 -18 15
-15 20 3 5 2 11 -2 13 -16 9 -58 15 -70 10z"/>
<path d="M23 1747 c-21 -11 -20 -12 25 -34 52 -25 71 -24 22 2 -18 9 -29 19
-26 22 6 7 67 -30 89 -55 9 -10 28 -40 41 -67 l25 -48 -2 36 c-1 19 -4 34 -6
32 -2 -2 -17 15 -35 38 -29 38 -91 89 -105 86 -3 -1 -16 -6 -28 -12z"/>
<path d="M0 1700 c0 -5 4 -9 9 -7 13 3 71 -36 71 -47 0 -5 -11 1 -24 13 -19
17 -26 20 -32 9 -4 -7 -4 -10 1 -6 4 4 17 -4 27 -18 15 -18 26 -23 41 -18 20
6 20 5 8 -10 -12 -14 -12 -16 5 -10 18 5 18 4 -1 -11 -11 -9 -29 -23 -40 -31
-27 -20 3 -6 38 18 31 22 35 14 10 -16 -15 -17 -15 -19 -1 -8 11 9 18 10 23 2
8 -13 -3 -50 -15 -50 -5 0 -17 -14 -25 -31 -16 -29 -16 -30 4 -20 29 16 39 13
17 -4 -11 -8 -15 -15 -9 -15 6 0 22 10 37 21 21 17 26 28 22 48 -3 14 -3 20 0
14 10 -23 21 -14 16 13 -3 19 -7 22 -13 12 -7 -11 -11 -10 -19 2 -5 8 -10 22
-10 30 0 8 -9 30 -20 48 -22 36 -24 42 -12 42 5 0 17 -18 28 -40 10 -22 23
-40 27 -40 5 0 -4 23 -19 50 -28 51 -38 60 -47 38 -4 -9 -8 -10 -14 -2 -4 6
-23 16 -42 22 -41 14 -41 14 -41 2z"/>
<path d="M4 1606 c-7 -19 -1 -49 11 -58 6 -5 5 -8 -2 -8 -7 0 -13 -5 -13 -11
0 -5 6 -7 12 -3 11 6 11 4 0 -7 -14 -15 -17 -159 -3 -159 16 0 23 19 23 65 0
25 3 45 8 45 5 0 8 14 8 30 -1 17 -6 30 -11 30 -6 0 -7 3 -4 7 4 3 0 17 -9 30
-12 19 -13 27 -3 39 8 10 8 14 0 14 -6 0 -14 -6 -17 -14z"/>
<path d="M4457 1529 c-9 -6 -26 -12 -36 -14 -11 -2 -29 -13 -40 -24 -12 -12
-30 -21 -41 -21 -11 0 -20 -4 -20 -9 0 -5 -9 -11 -19 -14 -12 -3 -23 -18 -29
-38 -7 -30 -6 -35 12 -39 11 -3 27 0 36 7 8 7 44 30 80 51 66 38 103 83 85
101 -7 6 -16 6 -28 0z"/>
<path d="M3430 1430 c0 -5 4 -10 9 -10 6 0 13 5 16 10 3 6 -1 10 -9 10 -9 0
-16 -4 -16 -10z"/>
<path d="M183 1418 c-22 -11 -37 -34 -29 -47 3 -4 17 -6 33 -5 15 1 35 3 43 3
13 1 13 3 1 10 -11 7 -10 10 5 14 16 4 17 5 2 6 -10 0 -18 8 -18 16 0 17 -6
18 -37 3z"/>
<path d="M4208 1388 c6 -6 18 -8 28 -6 14 3 12 5 -9 10 -19 3 -25 2 -19 -4z"/>
<path d="M4458 1291 c-16 -9 -28 -21 -28 -26 0 -6 -19 -19 -42 -30 -51 -24
-58 -42 -24 -55 18 -7 39 -4 78 9 52 17 53 19 56 61 4 53 -5 62 -40 41z"/>
<path d="M381 1214 c0 -27 4 -58 9 -69 6 -13 7 3 3 45 -7 79 -13 91 -12 24z"/>
<path d="M420 1213 c-7 -116 -3 -185 14 -240 10 -34 22 -60 27 -58 8 6 49
-108 49 -137 0 -25 30 -111 44 -125 9 -10 17 -4 35 30 l23 42 -35 90 c-51 135
-93 252 -118 333 -22 73 -37 98 -39 65z"/>
<path d="M194 1212 c-22 -15 -23 -52 -1 -67 12 -8 16 -15 9 -15 -17 0 -10 -22
14 -42 24 -20 67 -20 60 -1 -10 24 27 8 87 -39 20 -16 37 -28 37 -26 0 1 -9
34 -19 71 -14 55 -20 65 -29 54 -7 -8 -9 -17 -5 -21 4 -4 0 -4 -10 0 -9 3 -17
13 -17 20 0 11 -5 12 -17 6 -22 -11 -43 -5 -38 11 10 27 -46 66 -71 49z m130
-104 c-4 -6 -10 -5 -15 3 -14 22 -10 33 6 19 8 -7 12 -17 9 -22z"/>
<path d="M345 1179 c-4 -6 -5 -12 -2 -15 2 -3 7 2 10 11 7 17 1 20 -8 4z"/>
<path d="M2 983 c3 -33 8 -41 41 -56 33 -17 41 -17 77 -5 l41 13 -38 20 c-21
11 -54 30 -73 42 -47 31 -52 29 -48 -14z"/>
<path d="M4473 818 c-25 -27 -30 -48 -10 -48 25 0 39 18 35 45 l-3 27 -22 -24z"/>
<path d="M0 706 c0 -80 4 -116 11 -116 13 0 115 66 123 79 7 11 -28 21 -71 21
-26 0 -30 3 -26 20 6 23 28 25 63 6 15 -9 32 -11 45 -6 28 11 30 -19 3 -38
-10 -7 -18 -17 -18 -23 0 -14 57 18 92 51 16 16 35 31 41 33 6 2 7 9 3 16 -6
9 -23 11 -62 6 -34 -4 -54 -3 -54 3 0 6 6 13 13 15 6 3 -1 6 -17 6 -24 1 -27
3 -16 16 11 13 7 15 -28 15 -22 0 -54 3 -71 6 l-31 7 0 -117z"/>
<path d="M392 713 c-7 -3 -20 -19 -28 -36 l-16 -32 33 32 c32 32 36 45 11 36z"/>
<path d="M317 443 c-4 -3 -7 -16 -7 -27 1 -21 1 -21 15 -2 8 11 15 23 15 28 0
10 -14 11 -23 1z"/>
</g>
</svg>
